<svg xmlns="http://www.w3.org/2000/svg" viewBox="308 369 693 322"><defs><linearGradient id="g1" gradientUnits="userSpaceOnUse" x1="-51.9" y1="33.5" x2="192.7" y2="-124.2"><stop offset="0.062" stop-color="#4E2BFD"/><stop offset="0.188" stop-color="#4146FD"/><stop offset="0.312" stop-color="#3066FD"/><stop offset="0.438" stop-color="#1F7FFD"/><stop offset="0.562" stop-color="#0E91FD"/><stop offset="0.687" stop-color="#029EFD"/><stop offset="0.813" stop-color="#01A7FC"/><stop offset="0.937" stop-color="#01ADFC"/></linearGradient><linearGradient id="g2" gradientUnits="userSpaceOnUse" x1="-53.5" y1="261.4" x2="-97.6" y2="477.2"><stop offset="0.062" stop-color="#D2D1D3"/><stop offset="0.188" stop-color="#E1E1E2"/><stop offset="0.312" stop-color="#EEEDEE"/><stop offset="0.438" stop-color="#ECECED"/><stop offset="0.562" stop-color="#DDDDDE"/><stop offset="0.688" stop-color="#C8C7C9"/><stop offset="0.812" stop-color="#B0AFB2"/><stop offset="0.938" stop-color="#9D9D9F"/></linearGradient><linearGradient id="g3" gradientUnits="userSpaceOnUse" x1="-323.2" y1="331.1" x2="-270.7" y2="277.4"><stop offset="0.063" stop-color="#5440FC"/><stop offset="0.187" stop-color="#464BFC"/><stop offset="0.313" stop-color="#4463FC"/><stop offset="0.438" stop-color="#2D68FC"/><stop offset="0.562" stop-color="#2F75FC"/><stop offset="0.687" stop-color="#1F77FB"/><stop offset="0.813" stop-color="#1A7AFB"/><stop offset="0.937" stop-color="#147EFB"/></linearGradient><linearGradient id="g4" gradientUnits="userSpaceOnUse" x1="-244.2" y1="243.0" x2="-192.1" y2="191.1"><stop offset="0.063" stop-color="#038FFA"/><stop offset="0.187" stop-color="#0392F8"/><stop offset="0.313" stop-color="#0594FA"/><stop offset="0.437" stop-color="#019CF7"/><stop offset="0.563" stop-color="#05A4FC"/><stop offset="0.687" stop-color="#01A6F7"/><stop offset="0.813" stop-color="#07B1FB"/><stop offset="0.937" stop-color="#01B0F7"/></linearGradient></defs><path d="M 972.69 395.69 C 978.32 401.32 980.34 405.40 980.56 413.56 C 980.29 420.75 979.46 424.49 974.35 429.67 C 968.07 435.43 962.67 436.47 954.23 436.31 C 947.01 435.62 942.76 432.34 938.23 426.88 C 934.50 421.17 934.39 415.63 935.00 409.00 C 937.05 402.42 940.59 397.25 946.56 393.69 C 955.72 389.19 964.20 390.36 972.69 395.69 Z" fill="#00B8FC" fill-rule="evenodd"/><path d="M 538.90 404.14 C 544.92 409.47 548.91 415.83 552.88 422.75 C 554.02 424.71 555.16 426.68 556.30 428.64 C 556.90 429.67 557.50 430.71 558.12 431.77 C 561.38 437.37 564.69 442.93 568.00 448.50 C 572.34 455.81 576.67 463.13 580.98 470.45 C 586.68 480.10 592.43 489.73 598.20 499.33 C 603.51 508.17 608.77 517.03 614.01 525.90 C 619.16 534.59 624.35 543.26 629.55 551.91 C 634.22 559.69 638.85 567.49 643.44 575.31 C 646.21 580.02 649.03 584.69 651.90 589.33 C 655.91 595.82 659.81 602.37 663.69 608.94 C 664.38 610.11 665.08 611.29 665.78 612.47 C 667.18 614.84 668.58 617.22 669.99 619.59 C 671.85 622.74 673.71 625.89 675.57 629.04 C 677.72 632.68 679.87 636.31 682.02 639.95 C 683.97 643.27 685.94 646.58 687.92 649.89 C 688.38 650.66 688.84 651.43 689.31 652.23 C 690.15 653.64 690.99 655.05 691.84 656.46 C 692.22 657.09 692.59 657.72 692.98 658.37 C 693.14 658.64 693.14 658.64 693.95 659.99 C 695.48 662.92 696.72 665.95 698.00 669.00 C 693.52 669.10 689.04 669.17 684.56 669.22 C 683.04 669.24 681.52 669.27 680.00 669.30 C 666.87 669.60 655.03 668.43 645.00 659.00 C 638.59 652.59 634.12 645.59 629.75 637.69 C 628.77 635.95 627.78 634.21 626.80 632.47 C 625.81 630.73 624.83 628.99 623.85 627.26 C 621.27 622.71 618.58 618.23 615.88 613.75 C 611.81 607.02 607.80 600.27 603.81 593.50 C 598.84 585.06 593.78 576.68 588.69 568.31 C 580.34 554.61 572.15 540.82 564.00 527.00 C 561.75 523.19 559.50 519.37 557.25 515.56 C 556.72 514.66 556.19 513.76 555.64 512.83 C 551.77 506.29 547.88 499.78 543.96 493.27 C 540.68 487.82 537.43 482.35 534.20 476.88 C 533.34 475.43 532.49 473.99 531.63 472.54 C 530.36 470.38 529.08 468.22 527.81 466.06 C 526.62 464.03 525.42 462.01 524.22 459.98 C 524.05 459.68 524.05 459.68 523.16 458.16 C 520.65 453.94 517.90 449.97 515.00 446.00 C 512.73 446.17 512.73 446.17 510.00 447.00 C 508.14 449.22 508.14 449.22 506.39 452.20 C 505.73 453.31 505.06 454.43 504.38 455.57 C 503.67 456.80 502.96 458.02 502.25 459.25 C 501.51 460.51 500.76 461.77 500.01 463.03 C 498.05 466.34 496.11 469.66 494.17 472.99 C 492.27 476.26 490.34 479.52 488.42 482.79 C 486.27 486.45 484.11 490.11 481.97 493.79 C 478.17 500.31 474.33 506.80 470.44 513.27 C 466.18 520.35 461.97 527.46 457.75 534.56 C 456.92 535.97 456.08 537.37 455.25 538.78 C 446.74 553.11 438.26 567.45 429.81 581.81 C 429.41 582.50 429.00 583.19 428.58 583.90 C 426.62 587.25 424.65 590.60 422.69 593.95 C 417.07 603.54 411.36 613.08 405.61 622.60 C 402.14 628.38 398.74 634.19 395.44 640.06 C 388.09 653.08 380.18 664.10 365.17 668.41 C 358.32 669.68 351.32 669.30 344.38 669.19 C 342.78 669.17 341.19 669.16 339.60 669.15 C 335.73 669.11 331.87 669.06 328.00 669.00 C 331.67 661.43 335.58 654.15 340.00 647.00 C 341.30 644.87 342.59 642.74 343.88 640.60 C 344.58 639.46 345.27 638.32 345.96 637.18 C 353.26 625.18 360.53 613.16 367.74 601.11 C 369.59 598.01 371.45 594.91 373.31 591.81 C 373.66 591.23 374.01 590.65 374.37 590.06 C 376.72 586.13 379.08 582.21 381.43 578.29 C 388.10 567.20 394.73 556.09 401.30 544.95 C 404.78 539.05 408.28 533.18 411.81 527.31 C 421.82 510.68 431.69 493.96 441.49 477.21 C 449.04 464.30 456.69 451.45 464.41 438.65 C 466.24 435.60 468.06 432.55 469.88 429.50 C 470.95 427.72 472.02 425.94 473.09 424.16 C 474.34 422.09 475.57 420.02 476.78 417.93 C 483.30 407.05 490.89 400.94 503.00 397.00 C 515.73 393.96 528.14 396.85 538.90 404.14 Z" fill="url(#g1)" fill-rule="evenodd"/><path d="M 614.00 397.00 C 618.40 396.91 622.79 396.86 627.19 396.81 C 628.41 396.79 629.64 396.76 630.90 396.74 C 645.31 396.62 657.78 399.04 668.46 409.18 C 672.11 412.91 674.67 416.92 677.25 421.44 C 678.29 423.21 679.32 424.98 680.36 426.75 C 680.93 427.73 681.50 428.71 682.09 429.72 C 685.44 435.47 688.85 441.19 692.25 446.90 C 693.50 449.00 694.75 451.11 696.00 453.21 C 700.44 460.69 704.89 468.17 709.38 475.62 C 713.30 482.15 717.19 488.69 721.06 495.25 C 726.45 504.38 731.84 513.51 737.25 522.62 C 737.65 523.31 738.06 523.99 738.48 524.69 C 744.47 534.80 750.55 544.86 756.67 554.90 C 763.31 565.79 769.78 576.79 776.21 587.82 C 780.75 595.58 785.35 603.30 790.00 611.00 C 791.64 613.75 793.27 616.49 794.91 619.24 C 796.00 621.00 796.00 621.00 797.00 622.00 C 800.32 621.91 800.32 621.91 804.00 621.00 C 806.12 618.62 806.12 618.62 807.88 615.44 C 808.20 614.86 808.53 614.29 808.86 613.70 C 809.93 611.81 810.97 609.91 812.00 608.00 C 812.75 606.67 813.49 605.35 814.24 604.02 C 815.77 601.32 817.29 598.61 818.81 595.89 C 821.92 590.34 825.20 584.89 828.50 579.44 C 829.10 578.44 829.70 577.44 830.33 576.40 C 840.07 560.21 849.89 544.06 859.76 527.94 C 862.88 522.85 865.98 517.75 869.07 512.64 C 871.99 507.82 874.92 503.00 877.85 498.18 C 880.16 494.39 882.45 490.59 884.73 486.78 C 885.86 484.92 886.99 483.05 888.12 481.19 C 888.37 480.77 888.37 480.77 889.63 478.66 C 894.47 470.72 899.70 465.15 908.12 461.12 C 909.30 460.55 910.48 459.98 911.70 459.38 C 917.06 457.14 921.69 456.88 927.49 456.90 C 927.84 456.90 927.84 456.90 929.62 456.91 C 931.85 456.91 934.08 456.92 936.31 456.94 C 937.83 456.94 939.35 456.95 940.87 456.95 C 944.58 456.96 948.29 456.98 952.00 457.00 C 952.00 457.99 952.00 458.98 952.00 460.00 C 951.34 460.00 950.68 460.00 950.00 460.00 C 949.89 460.33 949.89 460.33 949.32 462.00 C 947.58 465.95 945.29 469.39 942.94 473.00 C 937.58 481.36 932.50 489.86 927.50 498.44 C 926.76 499.71 926.02 500.98 925.28 502.25 C 925.09 502.56 925.09 502.56 924.18 504.14 C 924.00 504.45 924.00 504.45 923.09 506.01 C 922.73 506.62 922.37 507.23 922.01 507.86 C 919.09 512.87 916.12 517.85 913.12 522.81 C 909.61 528.65 906.11 534.49 902.64 540.36 C 902.25 541.01 901.86 541.67 901.46 542.34 C 900.65 543.70 899.85 545.06 899.04 546.42 C 892.59 557.32 886.09 568.19 879.50 579.00 C 873.42 588.98 867.40 599.01 861.44 609.06 C 861.24 609.40 861.24 609.40 860.24 611.08 C 856.33 617.67 852.43 624.26 848.57 630.87 C 847.12 633.35 845.67 635.83 844.21 638.31 C 843.22 640.01 842.24 641.71 841.25 643.41 C 834.35 655.18 826.78 663.83 813.48 668.30 C 802.07 670.58 788.32 670.84 778.00 665.00 C 777.09 664.51 776.19 664.02 775.25 663.52 C 766.38 657.95 761.99 649.90 757.00 641.00 C 756.39 639.94 755.79 638.89 755.16 637.80 C 753.91 635.62 752.66 633.43 751.43 631.24 C 742.40 615.37 732.88 599.77 723.37 584.19 C 716.84 573.47 710.55 562.63 704.30 551.74 C 700.30 544.77 696.17 537.88 692.00 531.00 C 690.50 528.50 689.00 526.00 687.50 523.50 C 685.30 519.84 683.10 516.17 680.90 512.51 C 676.01 504.36 671.14 496.20 666.29 488.02 C 665.08 485.99 663.87 483.95 662.67 481.92 C 659.27 476.19 655.87 470.46 652.47 464.73 C 647.68 456.65 642.88 448.57 638.08 440.50 C 636.78 438.31 635.48 436.12 634.18 433.94 C 632.63 431.31 631.06 428.69 629.50 426.06 C 629.04 425.29 628.58 424.51 628.10 423.71 C 625.75 419.79 623.32 415.93 620.79 412.12 C 620.27 411.33 619.75 410.54 619.21 409.73 C 618.22 408.24 617.22 406.76 616.21 405.29 C 615.06 403.57 614.02 401.79 613.00 400.00 C 613.33 399.01 613.66 398.02 614.00 397.00 Z" fill="url(#g2)" fill-rule="evenodd"/></svg>