<svg xmlns="http://www.w3.org/2000/svg" viewBox="475.9 760.5 619.4 75.0"><path d="M 482.94 761.86 C 483.64 761.87 484.35 761.87 485.07 761.87 C 485.44 761.87 485.44 761.87 487.32 761.87 C 489.77 761.86 492.23 761.86 494.69 761.87 C 496.39 761.87 498.09 761.87 499.79 761.86 C 503.36 761.86 506.92 761.86 510.49 761.87 C 515.07 761.88 519.66 761.87 524.24 761.87 C 527.75 761.86 531.27 761.86 534.78 761.87 C 536.47 761.87 538.16 761.87 539.85 761.86 C 542.21 761.86 544.57 761.87 546.93 761.87 C 547.63 761.87 548.34 761.87 549.06 761.86 C 553.89 761.89 553.89 761.89 555.00 763.00 C 555.13 764.81 555.13 764.81 555.12 767.00 C 555.13 767.36 555.13 767.36 555.13 769.19 C 555.00 771.00 555.00 771.00 554.00 772.00 C 551.62 772.09 549.28 772.12 546.90 772.10 C 546.25 772.10 546.25 772.10 542.97 772.09 C 541.31 772.08 539.65 772.07 537.94 772.06 C 532.68 772.04 527.42 772.02 522.00 772.00 C 522.00 792.13 522.00 812.26 522.00 833.00 C 519.75 834.12 518.49 834.13 516.00 834.12 C 515.65 834.13 515.65 834.13 513.88 834.13 C 512.00 834.00 512.00 834.00 510.00 833.00 C 510.00 812.87 510.00 792.74 510.00 772.00 C 494.06 772.06 494.06 772.06 489.03 772.09 C 487.73 772.09 486.43 772.10 485.10 772.10 C 484.41 772.10 483.73 772.11 483.02 772.11 C 481.35 772.11 479.67 772.06 478.00 772.00 C 477.00 771.00 477.00 771.00 476.87 769.19 C 476.87 768.47 476.87 767.74 476.88 767.00 C 476.87 766.28 476.87 765.56 476.87 764.81 C 477.15 761.00 479.71 761.88 482.94 761.86 Z" fill="#F9F9F9" fill-rule="evenodd"></path><path d="M 622.49 761.73 C 623.03 761.72 623.03 761.72 625.75 761.70 C 626.32 761.70 626.32 761.70 629.24 761.70 C 630.43 761.69 631.63 761.69 632.86 761.69 C 635.38 761.68 637.91 761.68 640.44 761.68 C 644.29 761.69 648.14 761.66 651.99 761.64 C 654.45 761.64 656.91 761.64 659.36 761.64 C 660.51 761.63 661.66 761.62 662.84 761.61 C 669.93 761.65 676.30 761.98 682.02 766.65 C 689.42 776.10 689.20 785.46 689.25 797.12 C 689.27 798.38 689.29 799.64 689.31 800.93 C 689.35 809.73 689.20 819.96 684.00 827.50 C 676.56 833.70 667.67 834.60 658.30 834.50 C 657.77 834.50 657.77 834.50 655.05 834.50 C 652.80 834.50 650.55 834.49 648.30 834.47 C 644.88 834.44 641.45 834.45 638.03 834.46 C 635.83 834.45 633.63 834.44 631.43 834.43 C 630.42 834.44 629.40 834.44 628.36 834.44 C 620.87 834.34 613.81 833.33 607.62 828.81 C 602.23 823.03 601.54 816.57 601.60 809.00 C 601.60 808.17 601.60 807.34 601.59 806.48 C 601.59 804.73 601.60 802.98 601.61 801.23 C 601.62 798.57 601.61 795.92 601.59 793.26 C 601.59 791.55 601.60 789.84 601.60 788.13 C 601.60 787.35 601.59 786.57 601.58 785.76 C 601.66 779.45 602.69 772.98 606.65 767.88 C 607.22 767.44 607.79 767.01 608.38 766.56 C 608.94 766.11 609.50 765.66 610.09 765.19 C 614.17 762.65 617.70 761.75 622.49 761.73 Z M 628.07 770.84 C 628.87 770.83 629.66 770.82 630.47 770.81 C 630.90 770.81 630.90 770.81 633.04 770.80 C 633.93 770.79 634.81 770.79 635.72 770.78 C 637.59 770.77 639.46 770.76 641.32 770.76 C 644.16 770.75 646.99 770.72 649.83 770.69 C 651.65 770.68 653.47 770.68 655.29 770.67 C 656.13 770.66 656.97 770.65 657.83 770.63 C 663.53 770.66 668.93 771.21 674.00 774.00 C 677.30 778.35 677.44 782.74 677.40 788.03 C 677.40 788.79 677.40 789.54 677.41 790.32 C 677.41 791.90 677.40 793.49 677.39 795.08 C 677.38 797.49 677.39 799.91 677.41 802.32 C 677.41 803.87 677.40 805.42 677.40 806.97 C 677.40 807.68 677.41 808.40 677.42 809.14 C 677.35 813.82 676.60 817.09 674.00 821.00 C 669.52 825.11 663.96 824.45 658.22 824.43 C 657.18 824.44 656.13 824.44 655.06 824.45 C 652.85 824.46 650.65 824.45 648.44 824.45 C 645.08 824.44 641.71 824.47 638.35 824.50 C 636.20 824.50 634.06 824.50 631.91 824.50 C 631.41 824.50 631.41 824.50 628.87 824.53 C 623.11 824.47 619.45 824.04 615.00 820.00 C 612.25 816.46 612.69 812.21 612.70 807.91 C 612.69 807.13 612.69 806.35 612.69 805.54 C 612.68 803.89 612.68 802.24 612.68 800.59 C 612.69 798.07 612.66 795.56 612.64 793.04 C 612.64 791.43 612.64 789.83 612.64 788.22 C 612.63 787.47 612.62 786.72 612.61 785.95 C 612.65 781.44 613.25 778.60 616.00 775.00 C 619.72 771.64 623.16 770.89 628.07 770.84 Z" fill="#FAFAFA" fill-rule="evenodd"></path><path d="M 746.25 761.87 C 747.16 761.87 748.07 761.87 749.00 761.88 C 749.45 761.87 749.45 761.87 751.75 761.87 C 754.00 762.00 754.00 762.00 755.00 763.00 C 755.11 764.70 755.15 766.40 755.16 768.10 C 755.17 769.19 755.18 770.28 755.19 771.40 C 755.20 772.58 755.20 773.77 755.21 774.99 C 755.24 777.47 755.27 779.96 755.30 782.44 C 755.34 786.38 755.38 790.32 755.40 794.25 C 755.43 798.04 755.47 801.83 755.52 805.61 C 755.53 806.79 755.53 807.97 755.53 809.19 C 755.55 810.28 755.57 811.38 755.58 812.51 C 755.59 813.00 755.59 813.00 755.61 815.44 C 756.07 818.45 756.89 819.82 759.00 822.00 C 761.74 822.91 763.39 823.14 766.21 823.16 C 767.05 823.17 767.90 823.18 768.77 823.19 C 769.68 823.19 770.59 823.20 771.52 823.20 C 771.99 823.21 771.99 823.21 774.37 823.22 C 776.35 823.23 778.34 823.24 780.32 823.24 C 783.36 823.25 786.39 823.28 789.42 823.31 C 791.35 823.32 793.28 823.32 795.21 823.33 C 796.12 823.34 797.02 823.35 797.95 823.37 C 802.72 823.35 806.27 823.32 810.00 820.00 C 811.74 816.43 812.26 813.51 812.32 809.57 C 812.34 808.51 812.36 807.45 812.38 806.35 C 812.39 805.22 812.40 804.09 812.41 802.92 C 812.43 801.75 812.45 800.58 812.47 799.37 C 812.53 795.65 812.58 791.92 812.62 788.19 C 812.66 785.66 812.70 783.13 812.74 780.60 C 812.84 774.40 812.92 768.20 813.00 762.00 C 814.65 761.97 816.29 761.95 817.94 761.94 C 818.85 761.93 819.77 761.91 820.71 761.90 C 823.00 762.00 823.00 762.00 824.00 763.00 C 824.11 764.64 824.15 766.28 824.16 767.93 C 824.17 768.98 824.18 770.03 824.19 771.12 C 824.19 772.26 824.20 773.41 824.20 774.59 C 824.21 775.77 824.21 776.95 824.22 778.16 C 824.23 780.66 824.24 783.15 824.24 785.65 C 824.25 789.46 824.28 793.26 824.31 797.06 C 824.32 799.49 824.32 801.92 824.33 804.34 C 824.34 805.48 824.35 806.61 824.37 807.77 C 824.34 815.63 823.64 822.43 818.88 828.88 C 812.08 833.90 804.63 834.45 796.41 834.40 C 795.92 834.40 795.92 834.40 793.43 834.41 C 791.36 834.41 789.29 834.40 787.22 834.39 C 784.07 834.38 780.93 834.39 777.79 834.41 C 775.77 834.41 773.75 834.40 771.72 834.40 C 770.80 834.40 769.87 834.41 768.92 834.42 C 761.43 834.34 754.18 833.37 748.06 828.81 C 742.59 821.35 742.58 814.16 742.67 805.22 C 742.67 804.02 742.68 802.81 742.68 801.56 C 742.68 799.03 742.70 796.49 742.72 793.95 C 742.75 790.05 742.76 786.15 742.77 782.25 C 742.77 779.78 742.79 777.31 742.80 774.85 C 742.80 773.67 742.81 772.50 742.81 771.29 C 742.82 770.22 742.83 769.14 742.84 768.04 C 742.85 767.08 742.85 766.13 742.86 765.15 C 743.05 762.18 743.27 762.04 746.25 761.87 Z" fill="#FAF9FA" fill-rule="evenodd"></path><path d="M 905.90 761.66 C 906.47 761.66 906.47 761.66 909.38 761.64 C 911.81 761.63 914.23 761.63 916.66 761.63 C 920.36 761.63 924.05 761.59 927.75 761.55 C 930.11 761.54 932.47 761.54 934.84 761.54 C 935.94 761.52 937.03 761.51 938.17 761.50 C 945.99 761.54 951.64 762.64 957.38 768.38 C 960.89 774.05 961.59 779.43 961.00 786.00 C 960.00 787.00 960.00 787.00 957.71 787.10 C 956.80 787.09 955.88 787.07 954.94 787.06 C 954.02 787.05 953.10 787.04 952.15 787.04 C 951.44 787.02 950.73 787.01 950.00 787.00 C 949.82 786.16 949.64 785.31 949.45 784.45 C 949.20 783.35 948.95 782.25 948.69 781.12 C 948.44 780.03 948.20 778.94 947.95 777.82 C 947.00 775.00 947.00 775.00 944.00 773.00 C 939.56 771.73 935.06 771.84 930.48 771.83 C 930.07 771.83 930.07 771.83 928.00 771.82 C 926.28 771.82 924.55 771.81 922.83 771.81 C 920.21 771.81 917.59 771.79 914.97 771.78 C 913.28 771.77 911.60 771.77 909.92 771.77 C 909.14 771.76 908.37 771.76 907.57 771.75 C 902.40 771.77 897.86 772.15 893.00 774.00 C 890.49 778.43 890.69 783.30 890.70 788.29 C 890.69 789.06 890.69 789.84 890.69 790.64 C 890.68 792.28 890.68 793.92 890.68 795.56 C 890.69 798.06 890.66 800.56 890.64 803.06 C 890.64 804.65 890.64 806.25 890.64 807.85 C 890.63 808.59 890.62 809.33 890.61 810.10 C 890.65 814.57 891.15 817.50 894.00 821.00 C 896.92 822.78 899.11 823.25 902.51 823.27 C 902.95 823.28 902.95 823.28 905.19 823.30 C 906.13 823.30 907.08 823.30 908.06 823.30 C 909.04 823.31 910.02 823.31 911.03 823.31 C 913.11 823.32 915.18 823.32 917.25 823.32 C 920.42 823.31 923.59 823.34 926.76 823.36 C 928.78 823.36 930.79 823.36 932.81 823.36 C 933.75 823.37 934.70 823.38 935.68 823.39 C 940.54 823.36 944.15 823.33 948.00 820.00 C 948.93 817.08 948.93 817.08 949.31 813.81 C 949.45 812.73 949.59 811.64 949.74 810.52 C 949.78 810.10 949.78 810.10 950.00 808.00 C 953.63 808.00 957.26 808.00 961.00 808.00 C 961.37 816.39 961.40 822.29 956.38 829.25 C 949.70 834.17 941.94 834.45 933.94 834.40 C 933.42 834.40 933.42 834.40 930.81 834.41 C 928.64 834.41 926.48 834.40 924.31 834.39 C 921.01 834.38 917.71 834.39 914.41 834.41 C 912.30 834.41 910.18 834.40 908.06 834.40 C 907.09 834.40 906.11 834.41 905.11 834.42 C 897.71 834.34 890.73 833.27 884.62 828.81 C 879.15 822.95 878.54 816.41 878.60 808.75 C 878.60 807.89 878.60 807.03 878.59 806.15 C 878.59 804.35 878.60 802.55 878.61 800.75 C 878.62 798.01 878.61 795.27 878.59 792.53 C 878.59 790.77 878.60 789.01 878.60 787.25 C 878.60 786.44 878.59 785.63 878.58 784.80 C 878.66 778.59 879.80 773.20 883.39 767.98 C 883.86 767.53 884.33 767.08 884.81 766.62 C 885.27 766.16 885.73 765.70 886.21 765.23 C 892.16 761.16 899.00 761.68 905.90 761.66 Z" fill="#FAFAFA" fill-rule="evenodd"></path><path d="M 1017.29 761.90 C 1017.74 761.91 1017.74 761.91 1020.06 761.94 C 1020.98 761.95 1021.90 761.96 1022.85 761.96 C 1023.56 761.98 1024.27 761.99 1025.00 762.00 C 1026.37 771.58 1026.00 781.33 1026.00 791.00 C 1044.48 791.00 1062.96 791.00 1082.00 791.00 C 1082.33 781.43 1082.66 771.86 1083.00 762.00 C 1086.30 762.00 1089.60 762.00 1093.00 762.00 C 1094.87 763.87 1094.13 767.03 1094.13 769.52 C 1094.13 769.86 1094.13 769.86 1094.13 771.59 C 1094.14 773.85 1094.14 776.11 1094.13 778.38 C 1094.13 779.94 1094.13 781.51 1094.14 783.07 C 1094.14 786.36 1094.14 789.64 1094.13 792.93 C 1094.12 797.15 1094.13 801.37 1094.13 805.59 C 1094.14 808.82 1094.14 812.06 1094.13 815.29 C 1094.13 816.85 1094.13 818.40 1094.14 819.96 C 1094.14 822.13 1094.13 824.30 1094.13 826.48 C 1094.13 827.71 1094.13 828.95 1094.13 830.23 C 1094.00 833.00 1094.00 833.00 1093.00 834.00 C 1091.50 834.10 1090.00 834.13 1088.50 834.12 C 1087.69 834.13 1086.87 834.13 1086.03 834.13 C 1084.00 834.00 1084.00 834.00 1083.00 833.00 C 1082.91 830.71 1082.89 828.41 1082.90 826.12 C 1082.90 824.86 1082.91 823.61 1082.91 822.31 C 1082.92 820.70 1082.93 819.10 1082.94 817.44 C 1082.96 812.34 1082.98 807.25 1083.00 802.00 C 1063.86 802.00 1044.72 802.00 1025.00 802.00 C 1025.06 817.44 1025.06 817.44 1025.09 822.31 C 1025.09 823.57 1025.10 824.83 1025.10 826.12 C 1025.10 827.41 1025.11 828.71 1025.11 830.04 C 1025.00 833.00 1025.00 833.00 1024.00 834.00 C 1022.50 834.10 1021.00 834.13 1019.50 834.12 C 1018.69 834.13 1017.87 834.13 1017.03 834.13 C 1015.00 834.00 1015.00 834.00 1014.00 833.00 C 1013.90 830.83 1013.87 828.65 1013.87 826.48 C 1013.87 825.80 1013.87 825.11 1013.87 824.41 C 1013.86 822.15 1013.86 819.89 1013.87 817.62 C 1013.87 816.06 1013.87 814.49 1013.86 812.93 C 1013.86 809.64 1013.86 806.36 1013.87 803.07 C 1013.88 798.85 1013.87 794.63 1013.87 790.41 C 1013.86 787.18 1013.86 783.94 1013.87 780.71 C 1013.87 779.15 1013.87 777.60 1013.86 776.04 C 1013.86 773.87 1013.87 771.70 1013.87 769.52 C 1013.87 768.29 1013.87 767.05 1013.87 765.77 C 1014.04 762.04 1014.04 762.04 1017.29 761.90 Z" fill="#FBFBFB" fill-rule="evenodd"></path></svg>
